PathFileType	3	(X/Y/Z)	D:\Jess\Healthy\Labelled\HA03\20250325\SRRun01.trc
DataRate	CameraRate	NumFrames	NumMarkers	Units	OrigDataRate	OrigDataStartFrame	OrigNumFrames
250.0	250.0	4	33	mm	250.0	35937	2501
Frame#	Time	C7			T10			CLAV			LSHO			RSHO			LASIS			RASIS			LPSIS			RPSIS			LILCR			RILCR			LGTR			LTHI			LLTHI			LLEP			LPSH			LLSH			LDSH			LLMAL			LTOE			L5TH			LHEE			RGTR			RTHI			RLTHI			RLEP			RPSH			RLSH			RDSH			RLMAL			RTOE			R5TH			RHEE			
		X1	Y1	Z1	X2	Y2	Z2	X3	Y3	Z3	X4	Y4	Z4	X5	Y5	Z5	X6	Y6	Z6	X7	Y7	Z7	X8	Y8	Z8	X9	Y9	Z9	X10	Y10	Z10	X11	Y11	Z11	X12	Y12	Z12	X13	Y13	Z13	X14	Y14	Z14	X15	Y15	Z15	X16	Y16	Z16	X17	Y17	Z17	X18	Y18	Z18	X19	Y19	Z19	X20	Y20	Z20	X21	Y21	Z21	X22	Y22	Z22	X23	Y23	Z23	X24	Y24	Z24	X25	Y25	Z25	X26	Y26	Z26	X27	Y27	Z27	X28	Y28	Z28	X29	Y29	Z29	X30	Y30	Z30	X31	Y31	Z31	X32	Y32	Z32	X33	Y33	Z33	

938	143.744	858.533867803831	1417.933336087724	-269.7067138262701	781.5755456038117	1161.223502265066	-289.2699629371383	979.7190299448298	1317.381954033002	-251.7059093410506	947.9581375247493	1402.303469910126	-415.7111004492249	887.1700077615042	1380.473273327751	-109.7043193369672	924.9815571933694	964.4248760478032	-372.212797684893	913.3924272191316	982.9339184853483	-186.8243625158719	754.8365806971636	1008.151839347143	-317.9492572792561	750.388272759687	1009.16659110713	-270.8830282840552	874.3975018149796	1000.963638256966	-425.9242737370918	839.5485668583862	1006.931756715598	-138.6026891676923	909.9107216669101	883.3477400872504	-424.2898021480198	961.8951942505655	676.8467260250771	-370.6591216458078	884.910696738866	607.0008375798172	-426.1602220518237	859.4316548473179	474.6098616121997	-405.7320127919533	779.1569897787178	391.7968754496934	-367.1782057308644	651.6194162650334	447.6116045315005	-418.4384245027405	584.2242626644135	379.7180451391721	-374.9282859788495	474.7603360400482	418.6629356960781	-406.942670565278	410.0512789683578	271.465434774923	-392.979684622694	390.4201092498767	310.3230020025763	-428.1276152345442	469.586197804975	481.1520683233366	-349.1381840762525	833.834908709487	915.4399236796019	-117.1685203827337	1010.980904432755	729.8723327600842	-190.6861240250833	986.1462558887972	613.1146619462417	-143.6641364736145	1007.149438677057	507.909743903935	-167.7727520657373	1016.307148734261	384.5302986214404	-227.728170768802	931.5661009186589	288.8280746295293	-170.4939155842249	938.3118302071807	173.4593436068957	-235.2000905566473	866.1946452422643	111.3832515449502	-207.9644372679631	1009.640871726695	65.67931197921631	-224.0430195070907	963.4296118004039	47.62063387804875	-181.1434676561227	784.5767129663747	88.65913758857405	-253.9500876997871	
939	143.748	858.6881676056034	1415.87230274591	-268.6823124744114	780.7560259618923	1159.278034673788	-288.9850530692427	979.6739497131182	1314.407718988812	-252.0337307610481	946.9420087095107	1399.955273497767	-415.7057081441326	888.6834634420549	1377.147052377333	-108.7252768266613	923.7125760404559	962.1236578595898	-372.5273766436483	912.5922977364477	981.1717491144263	-186.9454725669982	753.5547732795898	1005.936740910898	-318.2203662901608	749.2407444493532	1007.030019985508	-271.2821764718302	872.6350018176511	998.2148754159133	-426.4628304225239	838.3476301642513	1004.969859684135	-138.8326244325981	909.2873370329941	881.083778879297	-424.4398587547364	964.3635658782086	675.9111915991995	-370.5989629280562	889.1047748477583	604.874909064999	-426.7388998604611	866.3039151229189	472.686263496151	-406.2546036546501	786.0778075037146	390.512950270317	-367.5548456956273	659.0041201960634	447.1682855436197	-418.7733663295257	591.1643858206266	379.858795980905	-375.2097578280378	482.1254236607587	419.7521722726704	-407.1645620074066	418.0410493008151	272.2679599328366	-394.3783738476206	398.7616652312537	311.1682535997613	-429.6651481850286	476.108830363907	482.0082185459228	-349.1094615051513	832.647059238155	913.825014860691	-117.4036479315653	1009.166960629148	727.5876724200763	-190.4947693551166	983.8735496921297	610.8979823466019	-143.38503322248	1004.497844320861	505.6011996019202	-167.6219935902428	1011.621460280553	382.1009366011413	-227.7786179734697	925.3033540059564	287.8320712431308	-170.5268403850096	929.3442995972899	172.5673224817461	-235.2717171913592	856.0056839068822	111.7611584259991	-207.8036199356812	998.8118210815182	65.5227325177312	-223.9638940701138	952.5179580416553	47.76421084023994	-181.024597775718	773.8484586487054	89.22426344967884	-253.7737380154085	
940	143.752	858.8192102749659	1413.977392856941	-267.6927526834762	779.9584523140703	1157.544999551441	-288.695700667185	979.6164441408324	1311.674039673159	-252.4049179667464	945.8803980217162	1397.834638371046	-415.6978817659755	890.2239748200038	1374.055630083272	-107.8375226758249	922.3856957805549	960.0197739585925	-372.9339320132499	911.8392468699685	979.5359964616019	-187.1813054102565	752.2926480148018	1003.987426065035	-318.4095763109367	748.1369043119789	1005.176132698011	-271.5896535465182	870.7652947316262	995.7462461436078	-427.0016240134259	837.3186160020255	1003.240827162298	-139.0862799598637	908.532947465864	879.0357781810887	-424.6981944626523	966.854425918296	675.2447536527849	-370.499164561662	893.3936365089531	603.0471908203112	-427.3168310421087	873.2757058347303	471.0733086876417	-406.7076256550877	793.1867585195718	389.4204418816659	-367.8509144601876	666.5315757831989	446.7270222419103	-419.0701207552846	598.3215347085405	379.8706909179436	-375.427542061366	489.6200911318216	420.4664554384081	-407.3993346364696	426.4792803426687	272.6017655929299	-395.5265195489847	407.4817692063892	311.4245664581535	-431.0299002750196	482.5708073529338	482.5777186935495	-349.2444679719092	831.5819050321187	912.4182122377339	-117.6102600872185	1007.153452161687	725.2025994757997	-190.2743286442507	981.1534963416779	608.6548002779955	-143.0450638256411	1001.261420701045	503.2160033799835	-167.3732380270725	1006.502447988153	379.6394509012936	-227.7069625677392	918.7201575461784	286.7377351471158	-170.4847356278595	920.2378629660834	171.6977885809188	-235.230699991896	845.793044195234	112.0859198293383	-207.5633628658495	988.0017825463983	65.35327950036574	-223.8248122051917	941.6341876565243	47.84517953792641	-180.8694351095901	763.1423121261041	89.75374577970129	-253.5479274642047	
941	143.756	858.9187424564619	1412.250841799149	-266.7388448891687	779.1905382223098	1156.018603463301	-288.399242284147	979.5460687349919	1309.195779257191	-252.8256078444334	944.7579905358032	1395.957903118835	-415.6902944440095	891.7879884668126	1371.209015410695	-107.0475779080124	921.0167786521624	958.117992048965	-373.4240805767564	911.1315582101879	978.0213474345954	-187.5264472867178	751.0603705148125	1002.304909550584	-318.5134233979573	747.081573308385	1003.609175404377	-271.7983644117026	868.8136725700504	993.5663627742907	-427.5308068721886	836.4693567555207	1001.741012844523	-139.3545048838825	907.6526947053626	877.2087073935634	-425.062426036244	969.3658509189971	674.8526753377909	-370.3741474470159	897.7664572410902	601.5284927332418	-427.8967889469921	880.3313792985299	469.7828653510753	-407.0958032769672	800.4729748111831	388.5258686956935	-368.076822787377	674.1827820834714	446.2954314694769	-419.3336863863026	605.679437563047	379.7515976684531	-375.5926334002163	497.2182639177984	420.8036070841437	-407.6516545509292	435.33105909088	272.4669776817723	-396.428513976083	416.5375742105726	311.0988334269205	-432.2179444502017	488.9641472531227	482.8517229949696	-349.5388260934781	830.6414006570195	911.2155393212255	-117.7809879163719	1004.950279481947	722.7212708199946	-190.0243275024745	977.9961661060612	606.3955083348036	-142.6583930792338	997.4521226139319	500.7650773049403	-167.04035064833	1000.956012374188	377.151366648829	-227.5331364423673	911.8171127007381	285.5501331886102	-170.3867609485661	910.9949653823363	170.8432609604673	-235.1032480126843	835.551851979511	112.3540481295999	-207.2681747846848	977.2062053376629	65.16272580621275	-223.6434894569935	930.7711602465479	47.8660560150019	-180.6880012187067	752.4516141311108	90.24519176950666	-253.2918473621552	
